<svg width="1024" height="1024" viewBox="0 0 1024 1024" fill="none" xmlns="http://www.w3.org/2000/svg">
  <title>Light green sprout icon</title>
  <g fill="#D4E66C">
    <path d="M503 478C457 466 400 430 371 386C353 359 350 330 366 312C384 292 420 299 456 325C494 352 523 392 531 427C537 455 528 484 503 478Z"/>
    <path d="M536 478C549 435 585 392 626 369C652 354 677 354 690 371C704 389 694 418 668 445C635 481 584 503 546 499C535 498 532 490 536 478Z"/>
    <path d="M479 537C429 557 364 557 316 533C288 519 274 495 282 475C291 451 328 445 371 456C421 468 466 497 489 530C492 534 488 534 479 537Z"/>
    <path d="M547 547C589 536 643 547 681 574C705 591 714 613 702 630C689 649 656 647 619 630C578 611 545 580 535 554C533 548 538 549 547 547Z"/>
    <path d="M514 493C526 504 536 517 544 532C553 551 557 569 557 588C557 599 548 608 537 608C526 608 517 599 517 588C517 575 514 562 508 550C502 538 493 527 483 518C474 510 474 497 482 489C490 480 505 484 514 493Z"/>
  </g>
</svg>
